<?xml version="1.0" encoding="UTF-8" standalone="no"?>
<!-- Created with Inkscape (http://www.inkscape.org/) -->

<svg
   width="56.656013mm"
   height="13.275358mm"
   viewBox="0 0 56.656014 13.275358"
   version="1.1"
   id="svg1"
   sodipodi:docname="horizontal-logo-white-with-black-bg.svg"
   inkscape:export-filename="..\..\..\Monochrome\Horizontal\inkscape_svg\horizontal-logo-black-358mm.svg"
   inkscape:export-xdpi="179.32784"
   inkscape:export-ydpi="179.32784"
   xmlns:inkscape="http://www.inkscape.org/namespaces/inkscape"
   xmlns:sodipodi="http://sodipodi.sourceforge.net/DTD/sodipodi-0.dtd"
   xmlns="http://www.w3.org/2000/svg"
   xmlns:svg="http://www.w3.org/2000/svg">
  <sodipodi:namedview
     id="namedview1"
     pagecolor="#ffffff"
     bordercolor="#000000"
     borderopacity="0.25"
     inkscape:showpageshadow="2"
     inkscape:pageopacity="0.0"
     inkscape:pagecheckerboard="0"
     inkscape:deskcolor="#d1d1d1"
     inkscape:document-units="mm"
     inkscape:export-bgcolor="#000000ff"
     showguides="true"
     inkscape:zoom="5.0809552"
     inkscape:cx="24.208047"
     inkscape:cy="44.283012"
     inkscape:window-width="1280"
     inkscape:window-height="698"
     inkscape:window-x="-6"
     inkscape:window-y="-6"
     inkscape:window-maximized="1"
     inkscape:current-layer="layer1" />
  <defs
     id="defs1">
    <clipPath
       clipPathUnits="userSpaceOnUse"
       id="clipPath117">
      <g
         id="g120"
         transform="matrix(0.1664385,0.17063891,-0.17063891,0.1664385,66.602409,58.487392)"
         style="display:inline;mix-blend-mode:normal;fill:#000000;fill-opacity:1;stroke:none;stroke-width:0.998455;stroke-linecap:butt;stroke-linejoin:round;stroke-dasharray:none;stroke-opacity:1"
         inkscape:label="grey">
        <path
           style="fill:#000000;fill-opacity:1;fill-rule:nonzero;stroke:none;stroke-width:0.998455;stroke-linecap:butt;stroke-linejoin:round;stroke-dasharray:none;stroke-opacity:1;paint-order:fill markers stroke"
           d="m 143.52769,236.11467 1e-5,29.64452 -29.64449,-2e-5 v 4.83886 0 l 34.39679,0.0587 0.0587,-34.54203 -4.84034,-4.81101 z"
           id="path117"
           inkscape:label="down" />
        <path
           style="fill:#000000;fill-opacity:1;fill-rule:nonzero;stroke:none;stroke-width:0.998455;stroke-linecap:butt;stroke-linejoin:round;stroke-dasharray:none;stroke-opacity:1;paint-order:fill markers stroke"
           d="m 108.98565,236.11469 h 29.64452 l -2e-5,29.64447 h 4.83886 v 0 l 0.0587,-34.39678 -4.89754,-0.008 -29.64449,-0.0504 -4.81101,4.84034 z"
           id="path118"
           inkscape:label="right" />
        <path
           style="fill:#000000;fill-opacity:1;fill-rule:nonzero;stroke:none;stroke-width:0.998455;stroke-linecap:butt;stroke-linejoin:round;stroke-dasharray:none;stroke-opacity:1;paint-order:fill markers stroke"
           d="m 108.98569,270.65673 v -29.64452 l 29.64447,2e-5 v -4.83886 0 l -34.39678,-0.0587 -0.008,4.89754 -0.0504,29.64449 4.84034,4.81101 z"
           id="path119"
           inkscape:label="up" />
        <path
           style="fill:#000000;fill-opacity:1;fill-rule:nonzero;stroke:none;stroke-width:0.998455;stroke-linecap:butt;stroke-linejoin:round;stroke-dasharray:none;stroke-opacity:1;paint-order:fill markers stroke"
           d="m 143.52771,270.65669 h -29.64452 l 2e-5,-29.64447 h -4.83886 v 0 l -0.0587,34.39678 4.89754,0.008 29.64449,0.0504 4.81101,-4.84034 z"
           id="path120"
           inkscape:label="left" />
      </g>
    </clipPath>
    <clipPath
       clipPathUnits="userSpaceOnUse"
       id="clipPath324">
      <path
         id="path325"
         style="fill:#ff0000;fill-opacity:1;fill-rule:nonzero;stroke:none;stroke-width:0.264583"
         d="m 51.447667,113.93638 -13.216764,5.3e-4 v 13.25396 h 7.314282 c -0.01243,-0.029 -0.0017,-0.0717 0.04651,-0.10956 0.01675,-0.0131 0.03234,-0.0277 0.04806,-0.0418 0.03268,-0.0321 0.06584,-0.0637 0.09922,-0.0951 0.03997,-0.0374 0.08064,-0.0743 0.122474,-0.10955 0.04972,-0.043 0.09906,-0.0864 0.14521,-0.13333 0.02709,-0.0279 0.0556,-0.0537 0.08372,-0.0806 0.03276,-0.0325 0.06383,-0.0668 0.09612,-0.0997 0.02603,-0.0254 0.05204,-0.0506 0.07545,-0.0786 0.02439,-0.0247 0.04889,-0.0498 0.07338,-0.0744 0.02688,-0.0266 0.05491,-0.0514 0.08268,-0.077 0.02284,-0.023 0.04737,-0.0438 0.07131,-0.0656 0.02316,-0.0231 0.04786,-0.045 0.07235,-0.0667 0.02519,-0.0215 0.05107,-0.0423 0.07648,-0.0636 0.02376,-0.0201 0.04636,-0.0421 0.06615,-0.0662 0.02058,-0.0258 0.03915,-0.0523 0.05684,-0.0801 0.01688,-0.0244 0.03264,-0.0504 0.05374,-0.0713 0.023,-0.0183 0.04818,-0.0319 0.07751,-0.0367 0.01463,-0.005 0.02639,-0.0121 0.03566,-0.0248 0.0239,-0.0311 0.04664,-0.0637 0.07803,-0.0879 0.0233,-0.0207 0.0472,-0.0404 0.0677,-0.0641 0.02226,-0.0214 0.04625,-0.0409 0.06925,-0.0615 0.02143,-0.0196 0.04409,-0.0371 0.06666,-0.0553 0.0223,-0.0178 0.0446,-0.0359 0.06511,-0.0558 0.02484,-0.0269 0.04943,-0.0543 0.07441,-0.0811 0.01672,-0.0164 0.03231,-0.0335 0.04651,-0.0522 0.02166,-0.0254 0.04269,-0.0512 0.06459,-0.0765 0.02083,-0.0264 0.04285,-0.0517 0.06821,-0.0739 0.02336,-0.0228 0.04907,-0.0435 0.0739,-0.0646 0.02268,-0.0205 0.04669,-0.0385 0.07183,-0.0558 0.02329,-0.0182 0.04318,-0.0402 0.06563,-0.0594 0.02796,-0.0275 0.05829,-0.0526 0.08423,-0.0822 0.02473,-0.0308 0.04651,-0.0639 0.0708,-0.0951 0.02633,-0.0323 0.05496,-0.0624 0.0863,-0.0899 0.0273,-0.0255 0.0513,-0.0541 0.07751,-0.0806 0.02667,-0.0245 0.0554,-0.0467 0.08527,-0.0672 0.02797,-0.0207 0.05636,-0.0405 0.08371,-0.062 0.02644,-0.0199 0.05282,-0.0403 0.07906,-0.0605 -5e-5,-0.008 5.56e-4,-0.0162 10e-4,-0.0243 0.0076,-0.0485 0.03965,-0.0771 0.08216,-0.0966 0.009,-0.003 0.01702,-0.009 0.02532,-0.0134 0.01655,-0.01 0.03208,-0.0161 0.04651,-0.0191 0.02161,-0.0283 0.04284,-0.0569 0.06615,-0.0837 0.02838,-0.0315 0.05784,-0.062 0.08682,-0.093 0.02545,-0.025 0.05273,-0.048 0.08062,-0.0703 0.0165,-0.0136 0.03254,-0.0278 0.04858,-0.0419 0.0044,-0.006 0.0083,-0.0116 0.01292,-0.017 0.02735,-0.0294 0.05727,-0.0565 0.0863,-0.0842 0.02802,-0.0244 0.05643,-0.048 0.08578,-0.0708 0.0095,-0.008 0.01866,-0.0164 0.0279,-0.0248 0.0012,-0.005 0.0022,-0.009 0.0041,-0.014 0.01326,-0.0329 0.04229,-0.0532 0.07493,-0.0641 0.0085,-0.009 0.01694,-0.0179 0.0248,-0.0274 0.0034,-0.004 0.0064,-0.008 0.0098,-0.0114 -0.0047,-0.0346 0.0085,-0.0564 0.05788,-0.0687 7.14e-4,-6e-5 0.0014,5e-5 0.0021,0 0.01472,-0.0178 0.02947,-0.0355 0.04496,-0.0527 0.01574,-0.0191 0.03046,-0.0388 0.04858,-0.0558 0.0066,-0.007 0.01334,-0.0135 0.02015,-0.0202 0.0081,-0.01 0.01676,-0.0191 0.0248,-0.0289 0.01034,-0.0121 0.02216,-0.0229 0.03307,-0.0346 0.009,-0.0105 0.01765,-0.0212 0.02687,-0.0315 0.01861,-0.0188 0.03742,-0.0373 0.05891,-0.0527 3.71e-4,-3.1e-4 6.88e-4,-7.4e-4 0.001,-10e-4 0.01927,-0.0175 0.03818,-0.0353 0.05839,-0.0517 0.02381,-0.018 0.04924,-0.0332 0.07235,-0.0522 0.02234,-0.0183 0.04572,-0.0343 0.06976,-0.0501 0.04048,-0.0479 0.08168,-0.0953 0.126091,-0.13953 v -5e-4 c 0.01517,-0.0151 0.03001,-0.0255 0.04444,-0.032 0.0071,-0.0207 0.01569,-0.0407 0.02532,-0.0605 0.01323,-0.0222 0.006,-0.0117 0.02067,-0.032 0.02596,-0.0359 0.05588,-0.0517 0.08165,-0.0532 0.01045,-6.1e-4 0.02026,1.4e-4 0.02894,0.005 0.0013,-0.002 0.0024,-0.003 0.0036,-0.005 0.02274,-0.0279 0.04549,-0.0553 0.06821,-0.0832 0.02758,-0.0352 0.0555,-0.0704 0.08578,-0.10335 0.0022,-0.002 0.0045,-0.004 0.0067,-0.007 0.006,-0.008 0.01202,-0.0159 0.01809,-0.0238 0.02173,-0.0269 0.04309,-0.054 0.06511,-0.0806 0.02531,-0.0324 0.05067,-0.0646 0.077,-0.0961 0.02763,-0.0336 0.05642,-0.0661 0.08578,-0.0982 0.03279,-0.0349 0.0667,-0.0682 0.101286,-0.10129 0.03635,-0.0338 0.07203,-0.0686 0.108004,-0.10283 0.0287,-0.0241 0.05727,-0.0483 0.08372,-0.0749 0.02322,-0.0197 0.04706,-0.0386 0.06873,-0.06 0.0265,-0.0243 0.05319,-0.0486 0.08062,-0.0718 0.02692,-0.0219 0.05367,-0.044 0.07855,-0.0682 0.02506,-0.0241 0.04796,-0.0503 0.0708,-0.0765 0.0167,-0.0193 0.03484,-0.0372 0.04909,-0.0584 0.01973,-0.0283 0.0407,-0.0553 0.06356,-0.0811 0.02257,-0.028 0.04458,-0.0567 0.0677,-0.0842 0.02057,-0.0257 0.04176,-0.0506 0.06511,-0.0739 0.01428,-0.004 0.02897,-0.0134 0.04341,-0.0186 10e-4,-0.006 0.005,-0.0129 0.01499,-0.0253 5.03e-4,-0.001 0.0014,-0.002 0.0021,-0.003 2.43e-4,-2.6e-4 1.68e-4,-0.001 5.29e-4,-0.001 0.0081,-0.0129 0.02621,-0.0287 0.05323,-0.0543 0.02934,-0.0278 0.0582,-0.0446 0.08475,-0.0517 3.44e-4,-1.9e-4 9e-4,-2.9e-4 0.001,-5.2e-4 0.01491,-0.008 0.02839,-0.0134 0.04134,-0.0176 0.01272,-0.0211 0.02793,-0.034 0.04237,-0.0398 z m 0,7.66206 c -0.0032,0.004 -0.0064,0.007 -0.0098,0.0109 -0.009,0.01 -0.0352,0.0234 -0.05013,0.0362 l -5.3e-4,5.3e-4 c -10e-4,0.002 -0.002,0.005 -0.0036,0.004 h -5.3e-4 c -0.0026,0.003 -0.0048,0.006 -0.0057,0.008 -0.0011,-7.4e-4 -0.0015,0.001 -0.0026,-0.002 6.88e-4,0.007 0.0011,0.01 10e-4,0.0217 -1.2e-5,0.001 3.97e-4,0.005 -5.29e-4,0.004 -0.0013,-0.002 -1.72e-4,-0.005 -10e-4,-0.006 -0.01394,-0.0198 -0.01917,-0.029 -0.02377,-0.0351 0.03539,0.11755 0.128416,0.12196 -0.0057,0.12196 -4.77e-4,0 -0.0011,2e-5 -0.0016,0 0.0017,0.003 -0.0069,0.002 -0.01034,0.002 -0.01654,0.003 -0.0131,0.003 -0.02894,0.003 -0.0041,-10e-4 -0.0059,-0.002 -0.0093,-0.003 -10e-4,0.001 -0.0021,0.002 -0.0031,0.003 -0.01644,0.0166 -0.03658,0.0296 -0.05219,0.047 -0.01271,0.0137 -0.02356,0.0289 -0.03462,0.0439 -0.01258,0.0201 -0.02716,0.0387 -0.04031,0.0584 -0.01694,0.0259 -0.03709,0.0495 -0.05736,0.0729 -0.01671,0.0235 -0.03764,0.0432 -0.05684,0.0646 -0.01953,0.0228 -0.04001,0.0446 -0.06201,0.0651 -0.02298,0.0212 -0.04721,0.0415 -0.0708,0.062 -0.025,0.0223 -0.0512,0.0425 -0.07803,0.0625 -0.0054,0.004 -0.01149,0.007 -0.01705,0.0114 -0.006,0.0625 -0.05351,0.0837 -0.0925,0.0636 -0.01601,0.01 -0.03257,0.019 -0.04651,0.0315 -0.02142,0.0222 -0.04058,0.0466 -0.06098,0.0698 -0.02552,0.0306 -0.05497,0.0573 -0.08423,0.0842 -0.02788,0.026 -0.05592,0.052 -0.08475,0.077 -0.03313,0.0256 -0.06582,0.0508 -0.09715,0.0786 -0.02977,0.0236 -0.05807,0.0499 -0.08475,0.077 -0.02868,0.0258 -0.05589,0.0524 -0.08268,0.0801 -0.01647,0.0218 -0.03284,0.0437 -0.04909,0.0656 -0.03783,0.0499 -0.07518,0.0999 -0.114204,0.14883 -0.03188,0.039 -0.06152,0.0797 -0.09508,0.11731 -0.02622,0.0287 -0.05561,0.0543 -0.08217,0.0827 -0.03148,0.0359 -0.06481,0.0702 -0.09922,0.10335 -0.03646,0.0345 -0.07628,0.0647 -0.115756,0.0956 -0.02239,0.0186 -0.04603,0.0364 -0.0677,0.0558 -0.01183,0.0111 -0.024,0.0216 -0.03617,0.032 -0.01647,0.0172 -0.03292,0.0343 -0.04961,0.0512 -0.03044,0.031 -0.05805,0.0645 -0.08837,0.0956 -0.02777,0.0274 -0.05651,0.0538 -0.08475,0.0806 -0.02208,0.0196 -0.04528,0.0386 -0.0677,0.0579 -0.0065,0.005 -0.01309,0.01 -0.01964,0.015 -0.01111,0.0204 -0.02506,0.0389 -0.04237,0.0558 -0.02031,0.0198 -0.04046,0.0393 -0.06356,0.0558 -0.0068,0.009 -0.01396,0.0182 -0.02015,0.0274 0.0021,-0.008 -0.0046,0.007 -0.0026,0.009 0.08079,0.0757 -0.04918,0.11968 -0.112138,0.0677 -0.0047,0.004 -0.0092,0.008 -0.01395,0.0124 -0.03161,0.0289 -0.06491,0.0559 -0.09663,0.0847 -0.0075,0.006 -0.01483,0.0127 -0.02222,0.0191 -0.01128,0.0146 -0.02269,0.0291 -0.03359,0.0439 -0.01487,0.0249 -0.03133,0.0486 -0.04806,0.0723 -0.01928,0.0284 -0.03903,0.0566 -0.05943,0.0842 -0.03142,0.0425 -0.06786,0.0808 -0.10542,0.11782 -0.03363,0.033 -0.06758,0.0658 -0.102836,0.0971 -0.01078,0.009 -0.02096,0.0194 -0.03152,0.0289 -4.6e-5,0.003 6.88e-4,0.006 5.29e-4,0.009 -0.005,0.0969 -0.06664,0.12615 -0.107487,0.0904 -0.0094,0.009 -0.01903,0.0182 -0.02842,0.0274 -0.0229,0.0205 -0.0469,0.0398 -0.06821,0.062 -0.01755,0.0193 -0.03291,0.0404 -0.04961,0.0605 -0.02013,0.0331 -0.04524,0.0624 -0.07235,0.0899 -0.03317,0.0349 -0.07011,0.0658 -0.10697,0.0966 -0.03108,0.0245 -0.06021,0.0508 -0.08888,0.078 -0.02648,0.027 -0.05592,0.0514 -0.08268,0.078 -0.02451,0.0271 -0.04848,0.0543 -0.07338,0.0811 -0.03323,0.0365 -0.06734,0.0723 -0.100252,0.10903 -0.03176,0.0357 -0.0628,0.0717 -0.0956,0.10646 -0.03216,0.0344 -0.06416,0.0688 -0.09974,0.0997 -0.03062,0.0259 -0.07011,0.0335 -0.10697,0.046 -0.02698,0.0111 -0.05078,0.0286 -0.07441,0.0455 -0.02141,0.0148 -0.04018,0.0328 -0.05891,0.0506 -0.01457,0.0134 -0.02377,0.0301 -0.03359,0.047 -0.01562,0.0261 -0.02927,0.053 -0.04496,0.0791 -0.02018,0.0306 -0.04246,0.0601 -0.0646,0.0894 -0.01896,0.0238 -0.03761,0.0478 -0.05633,0.0718 -0.02269,0.0274 -0.04718,0.0534 -0.07131,0.0796 -0.02331,0.0254 -0.04769,0.0498 -0.07183,0.0744 -0.02662,0.0246 -0.04845,0.0533 -0.0708,0.0816 -0.01895,0.0269 -0.03781,0.0534 -0.05839,0.0791 -0.0338,0.0406 -0.074,0.0753 -0.115239,0.10801 -0.05121,0.038 -0.102781,0.076 -0.155028,0.11265 -0.03657,0.0236 -0.07055,0.0508 -0.104387,0.078 -0.03262,0.0256 -0.0616,0.0551 -0.09095,0.0842 -0.02701,0.025 -0.04998,0.0534 -0.07338,0.0816 -0.03038,0.0382 -0.06064,0.0768 -0.09198,0.1142 -0.02693,0.0305 -0.0598,0.0544 -0.08888,0.0827 -0.03263,0.0333 -0.06548,0.0667 -0.101286,0.0966 -0.03157,0.0239 -0.06404,0.0453 -0.09974,0.0625 -0.0546,0.0264 -0.09738,0.0173 -0.118339,-0.007 -0.01828,0.0171 -0.03731,0.0334 -0.05684,0.0491 h 5.764041 z" />
    </clipPath>
  </defs>
  <path
     style="display:none;opacity:0;fill:#000000;fill-opacity:0.464968;stroke:none;stroke-width:0.338;stroke-linecap:butt;stroke-linejoin:round;stroke-dasharray:none;stroke-opacity:1;paint-order:fill markers stroke"
     d="M 5.9044314,1.2731984e-6 7.5311191,0.01532786 13.275407,5.9044858 13.26008,7.5311732 7.3560954,13.27028 5.7442389,13.26003 0.00508075,7.356096 0.01537727,5.7442941 Z"
     id="path18" />
  <g
     id="layer1"
     transform="translate(-38.109461,-99.807526)"
     style="stroke:none;stroke-opacity:1">
    <rect
       style="opacity:1;fill:#141414;fill-opacity:1;stroke:none;stroke-width:0.358;stroke-linecap:butt;stroke-linejoin:miter;stroke-dasharray:none;stroke-opacity:1;paint-order:normal"
       id="rect434"
       width="56.656013"
       height="13.275357"
       x="38.109463"
       y="99.807526" />
    <text
       xml:space="preserve"
       style="font-style:normal;font-variant:normal;font-weight:normal;font-stretch:normal;font-size:11.2889px;font-family:Atami;-inkscape-font-specification:'Atami,  weight=401';font-variant-ligatures:normal;font-variant-caps:normal;font-variant-numeric:normal;font-variant-east-asian:normal;display:inline;fill:#fdfdfd;fill-opacity:1;stroke:#fcfcfc;stroke-width:0.4;stroke-linejoin:round;stroke-dasharray:none;stroke-opacity:1;paint-order:fill markers stroke"
       x="54.288284"
       y="109.86998"
       id="text5-6-55"><tspan
         id="tspan5-0-0"
         style="font-style:normal;font-variant:normal;font-weight:normal;font-stretch:normal;font-size:11.2889px;font-family:Atami;-inkscape-font-specification:'Atami,  weight=401';font-variant-ligatures:normal;font-variant-caps:normal;font-variant-numeric:normal;font-variant-east-asian:normal;fill:#fdfdfd;fill-opacity:1;stroke:#fcfcfc;stroke-width:0.4;stroke-dasharray:none;stroke-opacity:1"
         x="54.288284"
         y="109.86998">OptioAI</tspan></text>
    <g
       id="g4-9-4-3-7"
       transform="matrix(0.1664385,0.17063891,-0.17063891,0.1664385,52.285887,47.518534)"
       style="display:none;fill:#000000;fill-opacity:1;stroke:#000000;stroke-width:0.998455;stroke-linecap:round;stroke-linejoin:round"
       inkscape:label="original">
      <path
         id="path4-3-4-5-8"
         style="color:#000000;fill:#000000;fill-opacity:1;stroke:none;-inkscape-stroke:none;paint-order:stroke fill markers"
         d="m 109.04492,240.51367 c -0.27555,-4e-4 -0.49932,0.2225 -0.5,0.49805 l -0.0586,34.39648 c -4e-4,0.27555 0.2225,0.49932 0.49805,0.5 l 4.89843,0.008 29.64453,0.0508 c 0.1329,-4.6e-4 0.26013,-0.0539 0.35352,-0.14844 l 4.8125,-4.83984 c 0.31476,-0.31607 0.0886,-0.85482 -0.35742,-0.85157 l -4.8086,0.0312 H 114.3828 v -29.14648 c -6.8e-4,-0.27555 -0.22445,-0.49845 -0.5,-0.49805 z m 0.49805,0.99805 h 3.8418 v 29.14453 c -4e-4,0.27554 0.2225,0.49932 0.49804,0.5 h 29.64453 c 10e-4,10e-6 0.003,10e-6 0.004,0 l 3.59961,-0.0215 -3.81055,3.83398 -29.43554,-0.0508 -4.40039,-0.008 z m -5.30859,-5.89649 c -0.27555,-4e-4 -0.49932,0.2225 -0.5,0.49805 l -0.008,4.89844 -0.008,4.26758 -0.043,25.37695 c -6e-5,0.13358 0.0534,0.26161 0.14844,0.35547 l 4.83984,4.81055 c 0.31608,0.31476 0.85483,0.0886 0.85157,-0.35743 l -0.0312,-4.80859 v -29.14453 h 29.14648 c 0.27555,-6.8e-4 0.49845,-0.22445 0.49805,-0.5 v -4.83789 c 4e-4,-0.27555 -0.2225,-0.49932 -0.49805,-0.5 z m 0.49804,0.99805 33.39844,0.0586 v 3.8418 h -29.14453 c -0.27555,-4e-4 -0.49932,0.2225 -0.5,0.49805 v 29.64453 c -10e-6,0.001 -10e-6,0.003 0,0.004 l 0.0215,3.59961 -3.83203,-3.81055 0.041,-25.16992 0.008,-4.26563 z m 4.25391,-5.80859 c -0.13329,-5.8e-4 -0.26128,0.0522 -0.35547,0.14648 l -4.81055,4.8418 c -0.3114,0.31619 -0.0864,0.85111 0.35742,0.84961 l 4.8086,-0.0293 h 0.002 29.14258 v 29.14649 c 6.8e-4,0.27554 0.22446,0.49844 0.5,0.49804 h 4.83789 c 0.27554,4e-4 0.49932,-0.2225 0.5,-0.49804 l 0.0586,-34.39649 c 4e-4,-0.27554 -0.2225,-0.49932 -0.49804,-0.5 l -4.89844,-0.008 z m 0.20703,0.99804 29.43555,0.0508 4.40039,0.008 -0.0586,33.39844 h -3.84179 v -29.14454 c 4e-4,-0.27555 -0.2225,-0.49932 -0.49805,-0.5 h -29.64453 c -10e-4,-1e-5 -0.003,-1e-5 -0.004,0 l -3.59961,0.0215 z m 34.11133,-0.95898 c -0.18573,0.0786 -0.30594,0.26122 -0.30469,0.46289 l 0.0293,4.81055 v 29.14258 h -29.14649 c -0.27554,6.8e-4 -0.49844,0.22446 -0.49804,0.5 v 4.83789 c -4e-4,0.27554 0.2225,0.49932 0.49804,0.5 l 34.39649,0.0586 c 0.27555,4e-4 0.49932,-0.2225 0.5,-0.49805 l 0.0586,-34.54297 c 5.8e-4,-0.13329 -0.0522,-0.26128 -0.14648,-0.35546 l -4.8418,-4.81055 c -0.14356,-0.14218 -0.35867,-0.18382 -0.54492,-0.10547 z m 0.70117,1.66797 3.83398,3.81055 -0.0586,33.83593 -33.39844,-0.0586 v -3.8418 h 29.14453 c 0.27554,4e-4 0.49932,-0.2225 0.5,-0.49804 v -29.64454 c 1e-5,-0.001 1e-5,-0.003 0,-0.004 z"
         sodipodi:nodetypes="ccccccccccccccccccccccccccccccccccccccccccccccccccccccccccccccccccccccccccccccccccccccccccccccccccccccc" />
    </g>
    <path
       id="path131"
       clip-path="url(#clipPath324)"
       style="display:inline;opacity:1;fill:#ffffff;fill-opacity:1;stroke:#000000;stroke-width:0.2;stroke-linecap:butt;stroke-linejoin:miter;stroke-dasharray:none;stroke-opacity:1;paint-order:normal"
       inkscape:label="rectanglefinal"
       d="m 44.308051,113.9369 0.435116,0.44751 0.16123,0.1633 5.17e-4,5.2e-4 4.934066,5.0586 c 0.04575,0.0471 0.0445,0.12268 -0.0026,0.16847 l -4.972823,4.85035 0.639237,0.65577 5.161442,-5.01726 0.54312,-0.53589 -0.726571,-0.74775 -4.890658,-5.03122 z m -0.285771,0.0563 -0.747758,0.72657 -0.729154,0.70849 -1.412834,1.37356 -2.889229,2.81791 -0.0124,1.27228 0.447518,-0.43512 0.163297,-0.16123 5.17e-4,-5.2e-4 5.058606,-4.93406 c 0.04713,-0.0457 0.122671,-0.0445 0.168465,0.003 l 0.0093,0.009 5.16e-4,5.2e-4 0.58136,0.59635 0.223759,0.22944 4.035413,4.13722 0.655774,-0.63924 -4.987293,-5.13147 z m -0.03101,1.63143 -5.154725,5.01055 -0.549837,0.54311 0.727088,0.74725 4.890657,5.03121 1.282092,0.0124 -0.425813,-0.4377 -0.170533,-0.17312 c -1.68e-4,-1.7e-4 -8.68e-4,-3.4e-4 -10e-4,-5.2e-4 l -4.934066,-5.0586 c -0.04574,-0.0471 -0.0445,-0.12268 0.0026,-0.16847 l 0.0098,-0.009 0.82579,-0.80564 4.137732,-4.03541 z m 7.271907,4.38888 -0.413411,0.40204 -0.197404,0.19482 -5.17e-4,5.2e-4 -5.058606,4.93406 c -0.04713,0.0457 -0.122158,0.0445 -0.167948,-0.003 l -0.0093,-0.009 -5.17e-4,-5.2e-4 -0.58136,-0.59635 -4.259688,-4.36717 -0.655774,0.63975 4.979024,5.12217 0.574642,0.58188 5.778975,-5.61671 z m 0.184485,1.42265 -0.258382,0.25115 -2.351795,2.30528 2.610177,-2.54609 z m -2.293917,2.23035 -3.561023,3.46181 c -0.0085,0.0252 -0.02465,0.0477 -0.04754,0.0625 h 0.01189 z"
       transform="translate(-0.121442,-14.118655)" />
    <g
       id="g124"
       style="display:none;fill:none;fill-opacity:0;stroke:none;stroke-width:0.1;stroke-dasharray:none;stroke-opacity:1"
       transform="translate(0.40858299,-15.633059)"
       clip-path="url(#clipPath117)"
       inkscape:label="clipped-0">
      <path
         style="opacity:1;fill:none;fill-opacity:0;stroke:#ffffff;stroke-width:0.2;stroke-linecap:butt;stroke-linejoin:miter;stroke-dasharray:none;stroke-opacity:1;paint-order:normal"
         d="m 43.660508,115.57223 5.714931,5.8792 -5.048488,4.92422"
         id="path121"
         inkscape:label="right" />
      <path
         style="display:inline;opacity:1;fill:none;fill-opacity:0;stroke:#ffffff;stroke-width:0.2;stroke-linecap:butt;stroke-linejoin:miter;stroke-dasharray:none;stroke-opacity:1;paint-order:normal"
         d="m 37.746327,122.92325 5.869437,-5.72495 0.843314,0.8646 4.090662,4.1939"
         id="path122"
         sodipodi:nodetypes="cccc"
         inkscape:label="up[" />
      <path
         style="opacity:1;fill:none;fill-opacity:0;stroke:#ffffff;stroke-width:0.2;stroke-linecap:butt;stroke-linejoin:miter;stroke-dasharray:none;stroke-opacity:1;paint-order:normal"
         d="m 45.097341,128.83743 -5.714933,-5.8792 5.04849,-4.92422"
         id="path123"
         inkscape:label="elft" />
      <path
         style="display:inline;opacity:1;fill:none;fill-opacity:0;stroke:#ffffff;stroke-width:0.2;stroke-linecap:butt;stroke-linejoin:miter;stroke-dasharray:none;stroke-opacity:1;paint-order:normal"
         d="m 51.016652,121.47164 -5.874565,5.73972 -4.933981,-5.0585"
         id="path124"
         inkscape:label="down" />
    </g>
    <path
       id="path149"
       style="display:none;opacity:1;fill:#000000;fill-opacity:0.983015;stroke:#000000;stroke-width:0.385;stroke-linecap:square;stroke-linejoin:miter;stroke-dasharray:none;stroke-opacity:1;paint-order:normal"
       d="m 88.378707,121.69328 -5.714931,-5.8792 m 0.666444,10.80342 5.048487,-4.92422 m -4.233352,5.75993 5.874565,-5.73972 m -5.874565,5.73972 -4.933981,-5.0585 m -2.466863,0.78525 5.874521,-5.73981 m 4.933976,5.05851 -4.933976,-5.05851 m -4.233357,5.75993 5.048491,-4.92422 m 0.666443,10.80342 -5.714934,-5.8792"
       inkscape:label="lines" />
    <g
       id="g163"
       transform="matrix(0.1664385,0.17063891,-0.17063891,0.1664385,66.612425,58.47763)"
       style="display:none;mix-blend-mode:normal;fill:#000000;fill-opacity:1;stroke:none;stroke-width:0;stroke-linecap:butt;stroke-linejoin:round;stroke-dasharray:none;stroke-opacity:1"
       inkscape:label="grey-backup-2">
      <path
         id="path163"
         style="display:inline;fill:#000000;fill-opacity:1;fill-rule:nonzero;stroke:#ffffff;stroke-width:0;stroke-linecap:butt;stroke-linejoin:round;stroke-dasharray:none;stroke-opacity:1;paint-order:fill markers stroke"
         inkscape:label="left"
         d="m 202.41907,286.77284 h -29.64452 l 2e-5,-29.64447 h -4.83886 v 0 l -0.0587,34.39678 4.89754,0.008 29.64449,0.0504 4.81101,-4.84034 z m -39.35275,0.0587 4.84034,4.81101 -0.0296,-4.81098 v -29.64452 l 29.64447,2e-5 v -4.83886 0 l -34.39678,-0.0587 m -0.0587,0.0297 4.81098,-0.0296 h 29.64452 l -2e-5,29.64447 h 4.83886 v 0 l 0.0587,-34.39678 -4.89754,-0.008 -29.64449,-0.0504 m 34.54201,4.81069 1e-5,29.64452 -29.64449,-2e-5 v 4.83886 0 l 34.39679,0.0587 0.0587,-34.54203 -4.84034,-4.81101 z"
         sodipodi:nodetypes="cccccccccccccccccccccccccccccccccccc" />
    </g>
    <g
       id="g62"
       transform="matrix(0.1664385,0.17063891,-0.17063891,0.1664385,66.612425,58.47763)"
       style="display:none;mix-blend-mode:normal;fill:#000000;fill-opacity:1;stroke:none;stroke-width:0.998455;stroke-linecap:butt;stroke-linejoin:round;stroke-dasharray:none;stroke-opacity:1"
       inkscape:label="grey-backup">
      <path
         id="path62"
         style="display:none;fill:#000000;fill-opacity:1;fill-rule:nonzero;stroke:#ffffff;stroke-width:0.998455;stroke-linecap:butt;stroke-linejoin:round;stroke-dasharray:none;stroke-opacity:1;paint-order:fill markers stroke"
         inkscape:label="left"
         d="m 207.06222,286.91207 0.16783,-0.16886 -4.81098,0.0296 h -29.64452 l 1e-5,-4.83875 m 1e-5,-24.80569 -4.83886,-3e-5 v 0 l -0.0587,34.39678 0.47114,7.7e-4 m -0.47114,-7.7e-4 5e-5,-4.69358 0.0587,-29.7032 4.83881,3e-5 m 24.74696,0.0587 5e-5,-3e-5 v -4.83886 0 l -34.39678,-0.0587 m -0.0587,0.0297 4.81098,-0.0296 h 29.64452 l -2e-5,4.89746 -5e-5,3e-5 m 0,24.2014 5e-5,0.54558 h 4.83886 v 0 l 0.0587,-34.39678 -0.42334,-6.9e-4 m 0.39399,-0.058 0.0293,4.81098 10e-6,29.64452 -4.89752,-3e-5 m -24.74697,10e-6 v 4.83886 0 l 34.45549,-0.0297"
         sodipodi:nodetypes="cccccccccccccccccccccccccccccccccccccc" />
    </g>
    <g
       id="g180"
       transform="matrix(0.1664385,0.17063891,-0.17063891,0.1664385,66.970626,56.735551)"
       style="display:inline;fill:none;fill-opacity:1;stroke:#cc0000;stroke-width:0.998455;stroke-linecap:round;stroke-linejoin:round;stroke-opacity:1"
       inkscape:label="clipping" />
  </g>
</svg>
